<svg xmlns="http://www.w3.org/2000/svg" xmlns:xlink="http://www.w3.org/1999/xlink" width="1080" zoomAndPan="magnify" viewBox="0 0 810 1012.49997" height="1350" preserveAspectRatio="xMidYMid meet" version="1.0"><defs><clipPath id="3644f381d6"><path d="M 32.585938 133.585938 L 777.71875 133.585938 L 777.71875 878.71875 L 32.585938 878.71875 Z M 32.585938 133.585938 " clip-rule="nonzero"/></clipPath><clipPath id="80544d3f20"><path d="M 428 83 L 745.414062 83 L 745.414062 663 L 428 663 Z M 428 83 " clip-rule="nonzero"/></clipPath><clipPath id="7a0986ddae"><path d="M 0.585938 83 L 317 83 L 317 663 L 0.585938 663 Z M 0.585938 83 " clip-rule="nonzero"/></clipPath><clipPath id="8f5b1db309"><rect x="0" width="746" y="0" height="746"/></clipPath></defs><g clip-path="url(#3644f381d6)"><g transform="matrix(1, 0, 0, 1, 32, 133)"><g clip-path="url(#8f5b1db309)"><g clip-path="url(#80544d3f20)"><path fill="#000000" d="M 591.929688 432.761719 C 582.839844 489.90625 511.410156 550.949219 455.5625 552.246094 C 451.667969 552.246094 447.769531 553.546875 445.171875 556.144531 C 442.574219 557.441406 439.976562 558.738281 438.679688 562.636719 C 419.199219 599 429.589844 627.574219 462.058594 650.949219 C 499.71875 678.222656 559.460938 650.949219 589.332031 626.273438 C 664.660156 563.933594 741.285156 456.140625 737.386719 353.539062 C 750.375 284.707031 747.777344 210.679688 728.296875 149.640625 C 715.308594 110.679688 677.644531 91.195312 638.683594 88.597656 C 599.722656 86 519.199219 74.3125 484.136719 97.6875 C 449.070312 121.066406 446.472656 166.523438 442.574219 205.484375 C 438.679688 248.339844 426.992188 328.863281 463.355469 362.632812 C 499.71875 395.101562 603.617188 360.035156 591.929688 432.761719 Z M 591.929688 432.761719 " fill-opacity="1" fill-rule="nonzero"/></g><g clip-path="url(#7a0986ddae)"><path fill="#000000" d="M 163.347656 432.761719 C 154.257812 489.90625 82.828125 550.949219 26.980469 552.246094 C 23.085938 552.246094 19.191406 553.546875 16.59375 556.144531 C 13.992188 557.441406 11.398438 558.738281 10.097656 562.636719 C -9.382812 599 1.003906 627.574219 33.472656 650.949219 C 71.136719 678.222656 130.878906 650.949219 160.75 626.273438 C 236.078125 563.933594 312.703125 456.140625 308.804688 353.539062 C 321.792969 284.707031 319.195312 210.679688 299.71875 149.640625 C 286.730469 110.679688 249.066406 91.195312 210.101562 88.597656 C 171.140625 86 90.621094 74.3125 55.554688 97.6875 C 20.492188 121.066406 17.890625 166.523438 13.996094 205.484375 C 10.097656 248.339844 -1.589844 328.863281 34.773438 362.632812 C 71.140625 395.101562 176.335938 360.035156 163.347656 432.761719 Z M 163.347656 432.761719 " fill-opacity="1" fill-rule="nonzero"/></g></g></g></g></svg>